M48
; DRILL file {KiCad 7.0.5} date Sun Mar 24 16:38:12 2024
; FORMAT={-:-/ absolute / metric / decimal}
; #@! TF.CreationDate,2024-03-24T16:38:12+04:00
; #@! TF.GenerationSoftware,Kicad,Pcbnew,7.0.5
; #@! TF.FileFunction,Plated,1,2,PTH
FMAT,2
METRIC
; #@! TA.AperFunction,Plated,PTH,ComponentDrill
T1C0.650
; #@! TA.AperFunction,Plated,PTH,ComponentDrill
T2C0.800
; #@! TA.AperFunction,Plated,PTH,ComponentDrill
T3C0.900
; #@! TA.AperFunction,Plated,PTH,ComponentDrill
T4C1.000
; #@! TA.AperFunction,Plated,PTH,ComponentDrill
T5C1.100
; #@! TA.AperFunction,Plated,PTH,ComponentDrill
T6C1.200
; #@! TA.AperFunction,Plated,PTH,ComponentDrill
T7C1.500
; #@! TA.AperFunction,Plated,PTH,ComponentDrill
T8C1.520
%
G90
G05
T1
X127.8Y49.85
X127.8Y51.75
T2
X93.98Y99.06
X93.98Y101.6
X93.98Y104.14
X93.98Y106.68
X95.25Y63.5
X95.25Y66.04
X95.25Y68.58
X95.25Y71.12
X95.25Y73.66
X95.25Y76.2
X95.25Y78.74
X101.6Y99.06
X101.6Y101.6
X101.6Y104.14
X101.6Y106.68
X102.87Y63.5
X102.87Y66.04
X102.87Y68.58
X102.87Y71.12
X102.87Y73.66
X102.87Y76.2
X102.87Y78.74
T3
X105.41Y114.3
X107.95Y114.3
T4
X82.55Y57.15
X82.55Y63.5
X82.55Y71.0
X90.05Y57.15
X94.1Y88.9
X101.6Y88.9
X113.15Y82.55
X114.3Y95.25
X114.3Y107.95
X114.3Y110.49
X114.3Y113.03
X120.65Y60.96
X120.65Y63.5
X120.65Y66.04
X120.65Y82.55
X121.8Y95.25
X124.7Y82.55
X132.2Y82.55
T5
X88.9Y97.79
X88.9Y107.95
X91.44Y114.3
X101.6Y114.3
T6
X80.01Y50.8
X82.55Y80.01
X82.55Y95.25
X82.55Y105.41
X82.55Y120.65
X88.9Y63.5
X88.9Y78.74
X95.25Y50.8
X99.06Y57.15
X101.6Y50.8
X114.3Y57.15
X116.84Y50.8
T7
X90.142Y123.267
X90.142Y130.767
X106.642Y130.767
X110.142Y123.267
X113.642Y130.767
T8
X96.52Y146.05
X101.6Y146.05
X102.87Y38.1
X107.95Y38.1
X127.0Y127.0
X127.0Y132.08
T0
M30
